<svg xmlns="http://www.w3.org/2000/svg" style="display:none" data-sokna-icon-scope="category-v1">
  <symbol id="icon-bean" viewBox="0 0 24 24" data-source="tabler:coffee"><path d="M3 14c.83 .642 2.077 1.017 3.5 1c1.423 .017 2.67 -.358 3.5 -1c.83 -.642 2.077 -1.017 3.5 -1c1.423 -.017 2.67 .358 3.5 1" /><path d="M8 3a2.4 2.4 0 0 0 -1 2a2.4 2.4 0 0 0 1 2" /><path d="M12 3a2.4 2.4 0 0 0 -1 2a2.4 2.4 0 0 0 1 2" /><path d="M3 10h14v5a6 6 0 0 1 -6 6h-2a6 6 0 0 1 -6 -6v-5" /><path d="M16.746 16.726a3 3 0 1 0 .252 -5.555" /></symbol>
  <symbol id="icon-brew" viewBox="0 0 24 24" data-source="tabler:filter"><path d="M4 4h16v2.172a2 2 0 0 1 -.586 1.414l-4.414 4.414v7l-6 2v-8.5l-4.48 -4.928a2 2 0 0 1 -.52 -1.345v-2.227" /></symbol>
  <symbol id="icon-tea" viewBox="0 0 24 24" data-source="tabler:teapot"><path d="M10.29 3h3.42a2 2 0 0 1 1.988 1.78l1.555 14a2 2 0 0 1 -1.988 2.22h-6.53a2 2 0 0 1 -1.988 -2.22l1.555 -14a2 2 0 0 1 1.988 -1.78" /><path d="M7.47 12.5l-4.257 -5.019a.899 .899 0 0 1 .69 -1.481h13.09a3 3 0 0 1 3.007 3v3c0 1.657 -1.346 3 -3.007 3" /><path d="M7 17h10" /></symbol>
  <symbol id="icon-herbal" viewBox="0 0 24 24" data-source="tabler:leaf"><path d="M5 21c.5 -4.5 2.5 -8 7 -10" /><path d="M9 18c6.218 0 10.5 -3.288 11 -12v-2h-4.014c-9 0 -11.986 4 -12 9c0 1 0 3 2 5h3l.014 0" /></symbol>
  <symbol id="icon-cup-hot" viewBox="0 0 24 24" data-source="tabler:mug"><path d="M4.083 5h10.834a1.08 1.08 0 0 1 1.083 1.077v8.615c0 2.38 -1.94 4.308 -4.333 4.308h-4.334c-2.393 0 -4.333 -1.929 -4.333 -4.308v-8.615a1.08 1.08 0 0 1 1.083 -1.077" /><path d="M16 8h2.5c1.38 0 2.5 1.045 2.5 2.333v2.334c0 1.288 -1.12 2.333 -2.5 2.333h-2.5" /></symbol>
  <symbol id="icon-iced-coffee" viewBox="0 0 24 24" data-source="tabler:cup"><path d="M5 11h14v-3h-14l0 3" /><path d="M17.5 11l-1.5 10h-8l-1.5 -10" /><path d="M6 8v-1a2 2 0 0 1 2 -2h8a2 2 0 0 1 2 2v1" /><path d="M15 5v-2" /></symbol>
  <symbol id="icon-mocktail" viewBox="0 0 24 24" data-source="tabler:glass-cocktail"><path d="M8 21h8" /><path d="M12 15v6" /><path d="M5 5a7 2 0 1 0 14 0a7 2 0 1 0 -14 0" /><path d="M5 5v.388c0 .432 .126 .853 .362 1.206l5 7.509c.633 .951 1.88 1.183 2.785 .517c.191 -.141 .358 -.316 .491 -.517l5 -7.509c.236 -.353 .362 -.774 .362 -1.206v-.388" /></symbol>
  <symbol id="icon-juice" viewBox="0 0 24 24" data-source="tabler:bottle"><path d="M10 5h4v-2a1 1 0 0 0 -1 -1h-2a1 1 0 0 0 -1 1v2" /><path d="M14 3.5c0 1.626 .507 3.212 1.45 4.537l.05 .07a8.093 8.093 0 0 1 1.5 4.694v6.199a2 2 0 0 1 -2 2h-6a2 2 0 0 1 -2 -2v-6.2c0 -1.682 .524 -3.322 1.5 -4.693l.05 -.07a7.823 7.823 0 0 0 1.45 -4.537" /><path d="M7 14.803a2.4 2.4 0 0 0 1 -.803a2.4 2.4 0 0 1 2 -1a2.4 2.4 0 0 1 2 1a2.4 2.4 0 0 0 2 1a2.4 2.4 0 0 0 2 -1a2.4 2.4 0 0 1 1 -.805" /></symbol>
  <symbol id="icon-sharbat" viewBox="0 0 24 24" data-source="tabler:glass-full"><path d="M8 21l8 0" /><path d="M12 15l0 6" /><path d="M17 3l1 7c0 3.012 -2.686 5 -6 5s-6 -1.988 -6 -5l1 -7h10" /><path d="M6 10a5 5 0 0 1 6 0a5 5 0 0 0 6 0" /></symbol>
  <symbol id="icon-shake" viewBox="0 0 24 24" data-source="tabler:milkshake"><path d="M17 10a5 5 0 0 0 -10 0" /><path d="M6 11a1 1 0 0 1 1 -1h10a1 1 0 0 1 1 1v1a1 1 0 0 1 -1 1h-10a1 1 0 0 1 -1 -1l0 -1" /><path d="M7 13l1.81 7.243a1 1 0 0 0 .97 .757h4.44a1 1 0 0 0 .97 -.757l1.81 -7.243" /><path d="M12 5v-2" /></symbol>
  <symbol id="icon-smoothie" viewBox="0 0 24 24" data-source="tabler:bubble-tea"><path d="M17.95 9l-1.478 8.69c-.25 1.463 -.374 2.195 -.936 2.631c-1.2 .931 -6.039 .88 -7.172 0c-.562 -.436 -.687 -1.168 -.936 -2.632l-1.478 -8.689" /><path d="M6 9l.514 -1.286a5.908 5.908 0 0 1 10.972 0l.514 1.286" /><path d="M5 9h14" /><path d="M12 9l4 -7" /><path d="M10.01 14h.01" /><path d="M11.02 18h.01" /><path d="M13.02 16h.01" /></symbol>
  <symbol id="icon-healthy-drink" viewBox="0 0 24 24" data-source="tabler:lemon"><path d="M17.536 3.393c3.905 3.906 3.905 10.237 0 14.143c-3.906 3.905 -10.237 3.905 -14.143 0l14.143 -14.143" /><path d="M5.868 15.06a6.5 6.5 0 0 0 9.193 -9.192" /><path d="M10.464 10.464l4.597 4.597" /><path d="M10.464 10.464v6.364" /><path d="M10.464 10.464h6.364" /></symbol>
  <symbol id="icon-protein" viewBox="0 0 24 24" data-source="tabler:milk"><path d="M8 6h8v-2a1 1 0 0 0 -1 -1h-6a1 1 0 0 0 -1 1v2" /><path d="M16 6l1.094 1.759a6 6 0 0 1 .906 3.17v8.071a2 2 0 0 1 -2 2h-8a2 2 0 0 1 -2 -2v-8.071a6 6 0 0 1 .906 -3.17l1.094 -1.759" /><path d="M10 16a2 2 0 1 0 4 0a2 2 0 1 0 -4 0" /><path d="M10 10h4" /></symbol>
  <symbol id="icon-energy-drink" viewBox="0 0 24 24" data-source="tabler:battery-charging"><path d="M16 7h1a2 2 0 0 1 2 2v.5a.5 .5 0 0 0 .5 .5a.5 .5 0 0 1 .5 .5v3a.5 .5 0 0 1 -.5 .5a.5 .5 0 0 0 -.5 .5v.5a2 2 0 0 1 -2 2h-2" /><path d="M8 7h-2a2 2 0 0 0 -2 2v6a2 2 0 0 0 2 2h1" /><path d="M12 8l-2 4h3l-2 4" /></symbol>
  <symbol id="icon-water" viewBox="0 0 24 24" data-source="tabler:droplet"><path d="M7.502 19.423c2.602 2.105 6.395 2.105 8.996 0c2.602 -2.105 3.262 -5.708 1.566 -8.546l-4.89 -7.26c-.42 -.625 -1.287 -.803 -1.936 -.397a1.376 1.376 0 0 0 -.41 .397l-4.893 7.26c-1.695 2.838 -1.035 6.441 1.567 8.546" /></symbol>
  <symbol id="icon-sugar-free" viewBox="0 0 24 24" data-source="tabler:circle-off"><path d="M20.042 16.045a9 9 0 0 0 -12.087 -12.087m-2.318 1.677a9 9 0 1 0 12.725 12.73" /><path d="M3 3l18 18" /></symbol>
  <symbol id="icon-cold-drink" viewBox="0 0 24 24" data-source="tabler:glass"><path d="M8 21h8" /><path d="M12 16v5" /><path d="M17 5l1 6c0 3.012 -2.686 5 -6 5s-6 -1.988 -6 -5l1 -6" /><path d="M7 5a5 2 0 1 0 10 0a5 2 0 1 0 -10 0" /></symbol>
  <symbol id="icon-snowflake" viewBox="0 0 24 24" data-source="tabler:snowflake"><path d="M10 4l2 1l2 -1" /><path d="M12 2v6.5l3 1.72" /><path d="M17.928 6.268l.134 2.232l1.866 1.232" /><path d="M20.66 7l-5.629 3.25l.01 3.458" /><path d="M19.928 14.268l-1.866 1.232l-.134 2.232" /><path d="M20.66 17l-5.629 -3.25l-2.99 1.738" /><path d="M14 20l-2 -1l-2 1" /><path d="M12 22v-6.5l-3 -1.72" /><path d="M6.072 17.732l-.134 -2.232l-1.866 -1.232" /><path d="M3.34 17l5.629 -3.25l-.01 -3.458" /><path d="M4.072 9.732l1.866 -1.232l.134 -2.232" /><path d="M3.34 7l5.629 3.25l2.99 -1.738" /></symbol>
  <symbol id="icon-brunch" viewBox="0 0 24 24" data-source="tabler:eggs"><path d="M13 22c-3 0 -4.868 -2.118 -5 -5c0 -3 2 -5 5 -5c4 0 8.01 2.5 8 5c0 2.5 -4 5 -8 5" /><path d="M8 18c-3.03 -.196 -5 -2.309 -5 -5.38c0 -4.307 2.75 -8.625 5.5 -8.62c2.614 0 5.248 3.915 5.5 8" /></symbol>
  <symbol id="icon-breakfast" viewBox="0 0 24 24" data-source="tabler:egg-fried"><path d="M9 12a3 3 0 1 0 6 0a3 3 0 1 0 -6 0" /><path d="M14 3a5 5 0 0 1 4.872 6.13a3 3 0 0 1 .178 5.681a3 3 0 1 1 -4.684 3.626a5 5 0 1 1 -8.662 -5a5 5 0 1 1 4.645 -8.856a4.982 4.982 0 0 1 3.651 -1.585l0 .004" /></symbol>
  <symbol id="icon-bakery" viewBox="0 0 24 24" data-source="tabler:baguette"><path d="M5.628 11.283l5.644 -5.637c2.665 -2.663 5.924 -3.747 8.663 -1.205l.188 .181a2.987 2.987 0 0 1 0 4.228l-11.287 11.274a3 3 0 0 1 -4.089 .135l-.143 -.135c-2.728 -2.724 -1.704 -6.117 1.024 -8.841" /><path d="M9.5 7.5l1.5 3.5" /><path d="M6.5 10.5l1.5 3.5" /><path d="M12.5 4.5l1.5 3.5" /></symbol>
  <symbol id="icon-pastry" viewBox="0 0 24 24" data-source="tabler:cookie"><path d="M8 13v.01" /><path d="M12 17v.01" /><path d="M12 12v.01" /><path d="M16 14v.01" /><path d="M11 8v.01" /><path d="M13.148 3.476l2.667 1.104a4 4 0 0 0 4.656 6.14l.053 .132a3 3 0 0 1 0 2.296q -.745 1.18 -1.024 1.852q -.283 .684 -.66 2.216a3 3 0 0 1 -1.624 1.623q -1.572 .394 -2.216 .661q -.712 .295 -1.852 1.024a3 3 0 0 1 -2.296 0q -1.203 -.754 -1.852 -1.024q -.707 -.292 -2.216 -.66a3 3 0 0 1 -1.623 -1.624q -.397 -1.577 -.661 -2.216q -.298 -.718 -1.024 -1.852a3 3 0 0 1 0 -2.296q .719 -1.116 1.024 -1.852q .257 -.62 .66 -2.216a3 3 0 0 1 1.624 -1.623q 1.547 -.384 2.216 -.661q .687 -.285 1.852 -1.024a3 3 0 0 1 2.296 0" /></symbol>
  <symbol id="icon-waffle" viewBox="0 0 24 24" data-source="tabler:grid-4x4"><path d="M3 6h18" /><path d="M3 12h18" /><path d="M3 18h18" /><path d="M6 3v18" /><path d="M12 3v18" /><path d="M18 3v18" /></symbol>
  <symbol id="icon-donut" viewBox="0 0 24 24" data-source="tabler:circle-dot"><path d="M11 12a1 1 0 1 0 2 0a1 1 0 1 0 -2 0" /><path d="M3 12a9 9 0 1 0 18 0a9 9 0 1 0 -18 0" /></symbol>
  <symbol id="icon-iranian-food" viewBox="0 0 24 24" data-source="tabler:bowl-spoon"><path d="M4 11h16a1 1 0 0 1 1 1v.5c0 1.5 -2.517 5.573 -4 6.5v1a1 1 0 0 1 -1 1h-8a1 1 0 0 1 -1 -1v-1c-1.687 -1.054 -4 -5 -4 -6.5v-.5a1 1 0 0 1 1 -1" /><path d="M8 7c1.657 0 3 -.895 3 -2s-1.343 -2 -3 -2s-3 .895 -3 2s1.343 2 3 2" /><path d="M11 5h9" /></symbol>
  <symbol id="icon-grill" viewBox="0 0 24 24" data-source="tabler:grill"><path d="M19 8h-14a6 6 0 0 0 6 6h2a6 6 0 0 0 6 -5.775l0 -.225" /><path d="M17 20a2 2 0 1 1 0 -4a2 2 0 0 1 0 4" /><path d="M15 14l1 2" /><path d="M9 14l-3 6" /><path d="M15 18h-8" /><path d="M15 5v-1" /><path d="M12 5v-1" /><path d="M9 5v-1" /></symbol>
  <symbol id="icon-fried" viewBox="0 0 24 24" data-source="tabler:meat"><path d="M13.62 8.382l1.966 -1.967a2 2 0 1 1 3.414 -1.415a2 2 0 1 1 -1.413 3.414l-1.82 1.821" /><path d="M5.904 18.596c2.733 2.734 5.9 4 7.07 2.829c1.172 -1.172 -.094 -4.338 -2.828 -7.071c-2.733 -2.734 -5.9 -4 -7.07 -2.829c-1.172 1.172 .094 4.338 2.828 7.071" /><path d="M7.5 16l1 1" /><path d="M12.975 21.425c3.905 -3.906 4.855 -9.288 2.121 -12.021c-2.733 -2.734 -8.115 -1.784 -12.02 2.121" /></symbol>
  <symbol id="icon-seafood" viewBox="0 0 24 24" data-source="tabler:fish"><path d="M16.69 7.44a6.973 6.973 0 0 0 -1.69 4.56c0 1.747 .64 3.345 1.699 4.571" /><path d="M2 9.504c7.715 8.647 14.75 10.265 20 2.498c-5.25 -7.761 -12.285 -6.142 -20 2.504" /><path d="M18 11v.01" /><path d="M11.5 10.5c-.667 1 -.667 2 0 3" /></symbol>
  <symbol id="icon-sushi" viewBox="0 0 24 24" data-source="tabler:bowl-chopsticks"><path d="M4 11h16a1 1 0 0 1 1 1v.5c0 1.5 -2.517 5.573 -4 6.5v1a1 1 0 0 1 -1 1h-8a1 1 0 0 1 -1 -1v-1c-1.687 -1.054 -4 -5 -4 -6.5v-.5a1 1 0 0 1 1 -1" /><path d="M19 7l-14 1" /><path d="M19 2l-14 3" /></symbol>
  <symbol id="icon-noodles" viewBox="0 0 24 24" data-source="tabler:bowl-chopsticks"><path d="M4 11h16a1 1 0 0 1 1 1v.5c0 1.5 -2.517 5.573 -4 6.5v1a1 1 0 0 1 -1 1h-8a1 1 0 0 1 -1 -1v-1c-1.687 -1.054 -4 -5 -4 -6.5v-.5a1 1 0 0 1 1 -1" /><path d="M19 7l-14 1" /><path d="M19 2l-14 3" /></symbol>
  <symbol id="icon-soup" viewBox="0 0 24 24" data-source="tabler:soup"><path d="M4 11h16a1 1 0 0 1 1 1v.5c0 1.5 -2.517 5.573 -4 6.5v1a1 1 0 0 1 -1 1h-8a1 1 0 0 1 -1 -1v-1c-1.687 -1.054 -4 -5 -4 -6.5v-.5a1 1 0 0 1 1 -1" /><path d="M12 4a2.4 2.4 0 0 0 -1 2a2.4 2.4 0 0 0 1 2" /><path d="M16 4a2.4 2.4 0 0 0 -1 2a2.4 2.4 0 0 0 1 2" /><path d="M8 4a2.4 2.4 0 0 0 -1 2a2.4 2.4 0 0 0 1 2" /></symbol>
  <symbol id="icon-burger" viewBox="0 0 24 24" data-source="tabler:burger"><path d="M4 15h16a4 4 0 0 1 -4 4h-8a4 4 0 0 1 -4 -4" /><path d="M12 4c3.783 0 6.953 2.133 7.786 5h-15.572c.833 -2.867 4.003 -5 7.786 -5" /><path d="M5 12h14" /></symbol>
  <symbol id="icon-hot-dog" viewBox="0 0 24 24" data-source="tabler:sausage"><path d="M5.5 5.5a2.5 2.5 0 0 0 -2.5 2.5c0 7.18 5.82 13 13 13a2.5 2.5 0 1 0 0 -5a8 8 0 0 1 -8 -8a2.5 2.5 0 0 0 -2.5 -2.5" /><path d="M5.195 5.519l-1.243 -1.989a1 1 0 0 1 .848 -1.53h1.392a1 1 0 0 1 .848 1.53l-1.245 1.99" /><path d="M18.482 18.225l1.989 -1.243a1 1 0 0 1 1.53 .848v1.392a1 1 0 0 1 -1.53 .848l-1.991 -1.245" /></symbol>
  <symbol id="icon-pizza" viewBox="0 0 24 24" data-source="tabler:pizza"><path d="M12 21.5c-3.04 0 -5.952 -.714 -8.5 -1.983l8.5 -16.517l8.5 16.517a19.09 19.09 0 0 1 -8.5 1.983" /><path d="M5.38 15.866a14.94 14.94 0 0 0 6.815 1.634a14.944 14.944 0 0 0 6.502 -1.479" /><path d="M13 11.01v-.01" /><path d="M11 14v-.01" /></symbol>
  <symbol id="icon-pasta" viewBox="0 0 24 24" data-source="tabler:tools-kitchen-3"><path d="M7 4v17m-3 -17v3a3 3 0 1 0 6 0v-3" /><path d="M14 8a3 4 0 1 0 6 0a3 4 0 1 0 -6 0" /><path d="M17 12v9" /></symbol>
  <symbol id="icon-sandwich" viewBox="0 0 24 24" data-source="tabler:bread"><path d="M18 4a3 3 0 0 1 2 5.235v8.765a2 2 0 0 1 -2 2h-12a2 2 0 0 1 -2 -2v-8.764a3 3 0 0 1 1.824 -5.231h12.176v-.005" /></symbol>
  <symbol id="icon-salad" viewBox="0 0 24 24" data-source="tabler:salad"><path d="M4 11h16a1 1 0 0 1 1 1v.5c0 1.5 -2.517 5.573 -4 6.5v1a1 1 0 0 1 -1 1h-8a1 1 0 0 1 -1 -1v-1c-1.687 -1.054 -4 -5 -4 -6.5v-.5a1 1 0 0 1 1 -1" /><path d="M18.5 11c.351 -1.017 .426 -2.236 .5 -3.714v-1.286h-2.256c-2.83 0 -4.616 .804 -5.64 2.076" /><path d="M5.255 11.008a12.204 12.204 0 0 1 -.255 -2.008v-1h1.755c.98 0 1.801 .124 2.479 .35" /><path d="M8 8l1 -4l4 2.5" /><path d="M13 11v-.5a2.5 2.5 0 1 0 -5 0v.5" /></symbol>
  <symbol id="icon-appetizer" viewBox="0 0 24 24" data-source="tabler:bowl"><path d="M4 8h16a1 1 0 0 1 1 1v.5c0 1.5 -2.517 5.573 -4 6.5v1a1 1 0 0 1 -1 1h-8a1 1 0 0 1 -1 -1v-1c-1.687 -1.054 -4 -5 -4 -6.5v-.5a1 1 0 0 1 1 -1" /></symbol>
  <symbol id="icon-fries" viewBox="0 0 24 24" data-source="tabler:bucket"><path d="M4 7a8 4 0 1 0 16 0a8 4 0 1 0 -16 0" /><path d="M4 7c0 .664 .088 1.324 .263 1.965l2.737 10.035c.5 1.5 2.239 2 5 2s4.5 -.5 5 -2c.333 -1 1.246 -4.345 2.737 -10.035a7.45 7.45 0 0 0 .263 -1.965" /></symbol>
  <symbol id="icon-vegan" viewBox="0 0 24 24" data-source="tabler:seedling"><path d="M12 10a6 6 0 0 0 -6 -6h-3v2a6 6 0 0 0 6 6h3" /><path d="M12 14a6 6 0 0 1 6 -6h3v1a6 6 0 0 1 -6 6h-3" /><path d="M12 20l0 -10" /></symbol>
  <symbol id="icon-diet" viewBox="0 0 24 24" data-source="tabler:apple"><path d="M4 11.319c0 3.102 .444 5.319 2.222 7.978c1.351 1.797 3.156 2.247 5.08 .988c.426 -.268 .97 -.268 1.397 0c1.923 1.26 3.728 .809 5.079 -.988c1.778 -2.66 2.222 -4.876 2.222 -7.977c0 -2.661 -1.99 -5.32 -4.444 -5.32c-1.267 0 -2.41 .693 -3.22 1.44a.5 .5 0 0 1 -.672 0c-.809 -.746 -1.953 -1.44 -3.22 -1.44c-2.454 0 -4.444 2.66 -4.444 5.319" /><path d="M7 12c0 -1.47 .454 -2.34 1.5 -3" /><path d="M12 7c0 -1.2 .867 -4 3 -4" /></symbol>
  <symbol id="icon-kids-menu" viewBox="0 0 24 24" data-source="tabler:baby-carriage"><path d="M6 19a2 2 0 1 0 4 0a2 2 0 1 0 -4 0" /><path d="M16 19a2 2 0 1 0 4 0a2 2 0 1 0 -4 0" /><path d="M2 5h2.5l1.632 4.897a6 6 0 0 0 5.693 4.103h2.675a5.5 5.5 0 0 0 0 -11h-.5v6" /><path d="M6 9h14" /><path d="M9 17l1 -3" /><path d="M16 14l1 3" /></symbol>
  <symbol id="icon-sharing" viewBox="0 0 24 24" data-source="tabler:users-group"><path d="M10 13a2 2 0 1 0 4 0a2 2 0 0 0 -4 0" /><path d="M8 21v-1a2 2 0 0 1 2 -2h4a2 2 0 0 1 2 2v1" /><path d="M15 5a2 2 0 1 0 4 0a2 2 0 0 0 -4 0" /><path d="M17 10h2a2 2 0 0 1 2 2v1" /><path d="M5 5a2 2 0 1 0 4 0a2 2 0 0 0 -4 0" /><path d="M3 13v-1a2 2 0 0 1 2 -2h2" /></symbol>
  <symbol id="icon-combo" viewBox="0 0 24 24" data-source="tabler:packages"><path d="M7 16.5l-5 -3l5 -3l5 3v5.5l-5 3l0 -5.5" /><path d="M2 13.5v5.5l5 3" /><path d="M7 16.545l5 -3.03" /><path d="M17 16.5l-5 -3l5 -3l5 3v5.5l-5 3l0 -5.5" /><path d="M12 19l5 3" /><path d="M17 16.5l5 -3" /><path d="M12 13.5v-5.5l-5 -3l5 -3l5 3v5.5" /><path d="M7 5.03v5.455" /><path d="M12 8l5 -3" /></symbol>
  <symbol id="icon-sauce" viewBox="0 0 24 24" data-source="tabler:bottle"><path d="M10 5h4v-2a1 1 0 0 0 -1 -1h-2a1 1 0 0 0 -1 1v2" /><path d="M14 3.5c0 1.626 .507 3.212 1.45 4.537l.05 .07a8.093 8.093 0 0 1 1.5 4.694v6.199a2 2 0 0 1 -2 2h-6a2 2 0 0 1 -2 -2v-6.2c0 -1.682 .524 -3.322 1.5 -4.693l.05 -.07a7.823 7.823 0 0 0 1.45 -4.537" /><path d="M7 14.803a2.4 2.4 0 0 0 1 -.803a2.4 2.4 0 0 1 2 -1a2.4 2.4 0 0 1 2 1a2.4 2.4 0 0 0 2 1a2.4 2.4 0 0 0 2 -1a2.4 2.4 0 0 1 1 -.805" /></symbol>
  <symbol id="icon-food" viewBox="0 0 24 24" data-source="tabler:tools-kitchen-2"><path d="M19 3v12h-5c-.023 -3.681 .184 -7.406 5 -12m0 12v6h-1v-3m-10 -14v17m-3 -17v3a3 3 0 1 0 6 0v-3" /></symbol>
  <symbol id="icon-cake" viewBox="0 0 24 24" data-source="tabler:cake"><path d="M3 20h18v-8a3 3 0 0 0 -3 -3h-12a3 3 0 0 0 -3 3v8" /><path d="M3 14.803c.312 .135 .654 .204 1 .197a2.4 2.4 0 0 0 2 -1a2.4 2.4 0 0 1 2 -1a2.4 2.4 0 0 1 2 1a2.4 2.4 0 0 0 2 1a2.4 2.4 0 0 0 2 -1a2.4 2.4 0 0 1 2 -1a2.4 2.4 0 0 1 2 1a2.4 2.4 0 0 0 2 1c.35 .007 .692 -.062 1 -.197" /><path d="M12 4l1.465 1.638a2 2 0 1 1 -3.015 .099l1.55 -1.737" /></symbol>
  <symbol id="icon-dessert" viewBox="0 0 24 24" data-source="tabler:ice-cream-2"><path d="M17.657 11a6 6 0 1 0 -11.315 0" /><path d="M6.342 11l5.658 11l5.657 -11l-11.315 0" /></symbol>
  <symbol id="icon-ice-cream" viewBox="0 0 24 24" data-source="tabler:ice-cream"><path d="M12 21.5v-4.5" /><path d="M8 17h8v-10a4 4 0 1 0 -8 0v10" /><path d="M8 10.5l8 -3.5" /><path d="M8 14.5l8 -3.5" /></symbol>
  <symbol id="icon-chocolate" viewBox="0 0 24 24" data-source="tabler:chocolate"><path d="M12 21v-16" /><path d="M6 15h12" /><path d="M6 9h10.5" /><path d="M10.05 3a2.5 2.5 0 0 0 3.987 1.47a3 3 0 0 0 2.047 2.387a2.504 2.504 0 0 0 1.916 3.093v9.05a2 2 0 0 1 -2 2h-8a2 2 0 0 1 -2 -2v-14a2 2 0 0 1 2 -2h2.05" /></symbol>
  <symbol id="icon-service" viewBox="0 0 24 24" data-source="tabler:chef-hat"><path d="M12 3c1.918 0 3.52 1.35 3.91 3.151a4 4 0 0 1 2.09 7.723l0 7.126h-12v-7.126a4 4 0 1 1 2.092 -7.723a4 4 0 0 1 3.908 -3.151" /><path d="M6.161 17.009l11.839 -.009" /></symbol>
  <symbol id="icon-seasonal" viewBox="0 0 24 24" data-source="tabler:leaf-maple"><path d="M5 21c.5 -4.5 2.5 -8 7 -10" /><path d="M13 19c-2.733 0 -4.16 -3.11 -5 -5c-1.892 -.84 -4 -1.826 -4 -4.556c1.014 -.644 2.816 -.649 4 -.444c-.312 -2.071 -.37 -4.414 1 -6c2.364 .369 3 4 3 4c1.463 -1.368 4 -2 6 -2c0 2 -.63 4.538 -2 6q 3.687 .996 4 3c-1.586 1.36 -3.933 1.311 -6 1q .19 1.098 -1 4" /></symbol>
  <symbol id="icon-retail" viewBox="0 0 24 24" data-source="tabler:package"><path d="M12 3l8 4.5l0 9l-8 4.5l-8 -4.5l0 -9l8 -4.5" /><path d="M12 12l8 -4.5" /><path d="M12 12l0 9" /><path d="M12 12l-8 -4.5" /><path d="M16 5.25l-8 4.5" /></symbol>
  <symbol id="icon-gift" viewBox="0 0 24 24" data-source="tabler:gift"><path d="M3 9a1 1 0 0 1 1 -1h16a1 1 0 0 1 1 1v2a1 1 0 0 1 -1 1h-16a1 1 0 0 1 -1 -1l0 -2" /><path d="M12 8l0 13" /><path d="M19 12v7a2 2 0 0 1 -2 2h-10a2 2 0 0 1 -2 -2v-7" /><path d="M7.5 8a2.5 2.5 0 0 1 0 -5a4.8 8 0 0 1 4.5 5a4.8 8 0 0 1 4.5 -5a2.5 2.5 0 0 1 0 5" /></symbol>
  <symbol id="icon-sparkles" viewBox="0 0 24 24" data-source="tabler:sparkles"><path d="M16 18a2 2 0 0 1 2 2a2 2 0 0 1 2 -2a2 2 0 0 1 -2 -2a2 2 0 0 1 -2 2m0 -12a2 2 0 0 1 2 2a2 2 0 0 1 2 -2a2 2 0 0 1 -2 -2a2 2 0 0 1 -2 2m-7 12a6 6 0 0 1 6 -6a6 6 0 0 1 -6 -6a6 6 0 0 1 -6 6a6 6 0 0 1 6 6" /></symbol>
  <symbol id="icon-list" viewBox="0 0 24 24" data-source="tabler:list"><path d="M9 6l11 0" /><path d="M9 12l11 0" /><path d="M9 18l11 0" /><path d="M5 6l0 .01" /><path d="M5 12l0 .01" /><path d="M5 18l0 .01" /></symbol>
</svg>
